<svg width="23" height="53" viewBox="0 0 23 53" fill="none" xmlns="http://www.w3.org/2000/svg">
<path fill-rule="evenodd" clip-rule="evenodd" d="M12.4398 43.6866C12.786 46.3101 11.4008 52.1274 7.7069 50.7586C8.39956 49.618 8.97668 46.1961 5.85995 46.082C3.78212 46.082 3.20489 47.793 3.32033 49.5039C3.35111 49.9602 3.65105 51.329 6.20625 52.6977C11.4008 54.0665 15.2101 50.7586 14.8639 43.3445C24.4848 40.3868 24.2062 33.4729 20.9819 29.3933C18.4423 27.1473 18.2114 26.8051 13.2478 26.6911L12.5552 21.4441V20.7597C15.0947 16.8815 16.0182 13.8018 18.096 7.52825C14.2867 12.6611 14.1712 15.8549 9.66933 20.8738C-9.37737 36.0443 5.05191 43.4585 8.16865 43.4585C9.78379 43.7211 11.5662 43.7919 12.4398 43.6866ZM11.4009 30.5692C11.5163 31.3677 12.4398 35.9303 12.3243 41.2913C2.37294 40.9791 2.28279 33.1927 3.73806 30.5692C5.12041 28.0772 7.48805 25.5025 10.4774 23.2691C10.7083 23.8394 10.9391 25.6645 10.9391 27.6036C9.90021 28.5161 6.43717 28.9723 7.36065 36.2725C8.16865 32.3943 9.43847 31.3677 11.4009 30.5692ZM14.633 40.835C14.633 36.6147 13.825 32.8505 13.4787 30.113C21.5591 29.0864 20.5202 40.3199 14.633 40.835Z" fill="#0E2E1F"/>
<path d="M12.5552 21.4441C26.6382 17.3378 20.4048 1.14064 20.4048 0C19.2989 1.37782 17.9176 2.62701 16.4799 3.83721C10.2465 7.75638 5.0519 12.3189 9.66933 20.8738C14.1712 15.8549 14.2867 12.6611 18.096 7.52825C16.0182 13.8018 15.0947 16.8815 12.5552 20.7597V21.4441Z" fill="url(#paint0_linear_15_35)"/>
<defs>
<linearGradient id="paint0_linear_15_35" x1="11.4009" y1="5.58915" x2="14.332" y2="36.6213" gradientUnits="userSpaceOnUse">
<stop stop-color="#89C537"/>
<stop offset="0.647463" stop-color="#29893F"/>
</linearGradient>
</defs>
</svg>
